inDegrees=no
num_controls=7
num_derivatives=13
num_iterations=221
num_multipliers=7
num_parameters=0
num_slacks=7
num_states=26
objective=0.461781
objective_accelerations=0.000000
objective_balance=0.003158
objective_effort=0.035337
objective_height=0.315251
objective_ligament=0.108034
solver_duration=2738.971870
status=Solve_Succeeded
success=true
DataType=double
version=3
OpenSimVersion=4.5
endheader
time	/jointset/ground_pelvis/pelvis_tilt/value	/jointset/ground_pelvis/pelvis_tx/value	/jointset/ground_pelvis/pelvis_ty/value	/jointset/hip_l/hip_flexion_l/value	/jointset/hip_l/hip_adduction_l/value	/jointset/hip_l/hip_rotation_l/value	/jointset/back/lumbar_extension/value	/jointset/patellofemoral_l/patellar_flexion_l/value	/jointset/knee_l/knee_flexion_l/value	/jointset/knee_l/knee_adduction_l/value	/jointset/knee_l/knee_rotation_l/value	/jointset/ankle_l/ankle_angle_l/value	/jointset/subtalar_l/subtalar_angle_l/value	/jointset/ground_pelvis/pelvis_tilt/speed	/jointset/ground_pelvis/pelvis_tx/speed	/jointset/ground_pelvis/pelvis_ty/speed	/jointset/hip_l/hip_flexion_l/speed	/jointset/hip_l/hip_adduction_l/speed	/jointset/hip_l/hip_rotation_l/speed	/jointset/back/lumbar_extension/speed	/jointset/patellofemoral_l/patellar_flexion_l/speed	/jointset/knee_l/knee_flexion_l/speed	/jointset/knee_l/knee_adduction_l/speed	/jointset/knee_l/knee_rotation_l/speed	/jointset/ankle_l/ankle_angle_l/speed	/jointset/subtalar_l/subtalar_angle_l/speed	/forceset/tau_hip_flexion_l	/forceset/tau_hip_adduction_l	/forceset/tau_hip_rotation_l	/forceset/tau_knee_flexion_l	/forceset/tau_ankle_angle_l	/forceset/tau_subtalar_angle_l	/forceset/tau_lumbar_extension	lambda_cid13_p0	lambda_cid13_p1	lambda_cid13_p2	lambda_cid13_p3	lambda_cid13_p4	lambda_cid13_p5	lambda_cid14_p0	/jointset/ground_pelvis/pelvis_tilt/accel	/jointset/ground_pelvis/pelvis_tx/accel	/jointset/ground_pelvis/pelvis_ty/accel	/jointset/hip_l/hip_flexion_l/accel	/jointset/hip_l/hip_adduction_l/accel	/jointset/hip_l/hip_rotation_l/accel	/jointset/back/lumbar_extension/accel	/jointset/patellofemoral_l/patellar_flexion_l/accel	/jointset/knee_l/knee_flexion_l/accel	/jointset/knee_l/knee_adduction_l/accel	/jointset/knee_l/knee_rotation_l/accel	/jointset/ankle_l/ankle_angle_l/accel	/jointset/subtalar_l/subtalar_angle_l/accel	gamma_cid13_p0	gamma_cid13_p1	gamma_cid13_p2	gamma_cid13_p3	gamma_cid13_p4	gamma_cid13_p5	gamma_cid14_p0
0.5	-0.1713729441679453	-0.07445160245762043	0.8363385952012624	0.8848870944331038	-0.2982097970993119	-0.1873342723923561	-0.9591134327218986	0.6445649998085166	0.6445649998086357	-0.07502016072742024	-0.1737717839093413	-0.01740126940997973	-0.009358471748151451	-0.5208740682545706	0.01307865762778296	-0.0817671615107036	0.6479371117178909	-0.02782239115695911	0.07510503611627872	0.0006905171810531666	0.1292574044681958	0.1292574044682039	-0.04547152078288522	0.01354126551220735	-0.001962589887081805	-0.03005655434916994	-0.3858343519756668	0.03816046326676111	-0.005094339079727856	-0.09061441166578335	0.05697494114225977	0.08706732898875723	0.4111619718086379	-27.34005698440005	-33.67706992032537	5.6580800766491	2.060641779773878	-743.0374116379247	-91.71576774919949	-19.78561808626326	3.364512832787983	0.3493811384327724	0.8660260400300638	-5.574827775367873	0.7551020721670055	-1.475247000349154	-2.165356875505312	-2.135987391311648	-2.135987391311569	1.424906764661335	-0.1805861578753268	0.3016147138678139	0.8926873084073799	3.354070900439382e-08	-7.494683599814156e-09	-4.523886317714621e-08	-1.150619724146703e-09	1.409670980595815e-07	1.610194839437729e-08	1.28687481866291e-08
0.51	-0.17643235344973	-0.0743045598579883	0.8355606069461639	0.8911146641923259	-0.2984509717746786	-0.186658738170528	-0.9591936534961262	0.6457569773853188	0.6457569773852803	-0.07540186166316831	-0.1736487617649596	-0.01740775806707623	-0.009615764880181215	-0.4927805170376818	0.01621200015942961	-0.07417126126326175	0.6000788823747669	-0.02050984490663603	0.05997923164743005	-0.0147451296028658	0.1096834469310706	0.1096834469310824	-0.03084693190600009	0.01084935617649062	0.0004552481154835437	-0.02157232272015292	-0.38639914257978	0.0383635643359597	-0.005028138470775253	-0.08798960196625398	0.05341317521044988	0.08718268143284591	0.4114353771487985	-28.28264891761485	-33.58183969633441	5.665415197033698	2.895827541313385	-739.7437377820747	-91.22758955915612	-19.74573268647153	2.265874574376276	0.2776329328204578	0.655297531267506	-4.016002635832568	0.7047403553714109	-1.534631899788291	-0.9342372160439483	-1.786300362324238	-1.786300362323672	1.484492321142424	-0.3455681198598214	0.180427808827449	0.8007531477013946	6.925654874964415e-09	1.482308374044341e-08	-9.107681043525654e-09	5.20206654560265e-09	1.734985786714022e-07	5.226504069207312e-08	-2.820961740003947e-09
0.52	-0.1812640075576965	-0.07412971940858147	0.8348483627963731	0.896938715233709	-0.2986219390967488	-0.1861351389393382	-0.9593685444654121	0.6467695753012509	0.6467695753010916	-0.07563666523573634	-0.1735590736736561	-0.0173963564510135	-0.009793323284409633	-0.4753230334913019	0.01863822758271639	-0.06861834044918566	0.5672333681497351	-0.01378092050004815	0.04471803799315017	-0.01824352183513105	0.09338147229749558	0.09338147229751077	-0.01609204815149149	0.006874454903172441	0.001615464733111632	-0.0141096087890315	-0.3869639331839136	0.03856666540513239	-0.004961937861698125	-0.08536479226673685	0.04985140927862897	0.08729803387690276	0.4117087824889504	-29.23336684644526	-33.48545683794553	5.672874799628133	3.734164694149259	-736.6027171773418	-90.74658302894804	-19.71228807581237	1.237299298686423	0.2079581167607022	0.4574301533568869	-2.572284751749448	0.6383777034199496	-1.502324837435357	0.2220940348256275	-1.481590810601489	-1.481590810601473	1.450965740186024	-0.4371845453956211	0.05009043688030208	0.6883837688282294	-2.019049868268573e-08	7.961126340381108e-09	2.290098504678595e-08	1.130664742304827e-09	1.070508019287162e-07	4.310661285125523e-08	-1.69441516158987e-08
0.53	-0.1859591817534838	-0.0739334999554489	0.8341837911572147	0.9024897200053277	-0.2987294528192375	-0.1857599185225115	-0.9595365805251799	0.6476331261545408	0.6476331261545335	-0.07572833603552262	-0.1735116024654968	-0.01737788406159983	-0.009901763190044563	-0.4640380349724819	0.02055301534195294	-0.06441149566597357	0.5436048504247579	-0.007908029002941866	0.03079223265684914	-0.01509280400445901	0.07967601778001802	0.07967601778001522	-0.00270708368864121	0.002791986318534923	0.002051955698629999	-0.007783753178494322	-0.3873719216876513	0.03886818556111003	-0.004850654232650193	-0.08250142644065749	0.04618637751937958	0.08744692816629042	0.4104783916458661	-30.21581042327417	-33.39855786817021	5.682385384106645	4.453691595963561	-733.579021706201	-90.24068964195166	-19.68460985703685	1.025159698418603	0.1753417483762623	0.3849998279956664	-2.162550244818117	0.5338132050650233	-1.267786593183184	0.4021935752851677	-1.262919986287788	-1.262919986290463	1.212516876293129	-0.367940132546706	0.03636372147488778	0.5738746746866169	-3.366346904662257e-08	3.298311803285809e-09	4.228280648693835e-08	2.238545035093235e-10	6.32859688781742e-08	3.544771800231282e-08	-2.349064096572011e-08
0.54	-0.1905512940500905	-0.07371971209614953	0.833557825603327	0.907823556607311	-0.2987838239603015	-0.1855099718013617	-0.9596649828230374	0.6483700430198461	0.648370043020027	-0.07570010617526435	-0.1734997883666995	-0.01735585970356454	-0.009953106896069349	-0.4547106536561039	0.02215190881607509	-0.06089712339507408	0.5237997342219364	-0.003152404217466599	0.01966329886231135	-0.01031676944989786	0.06805467470386591	0.06805467470384513	0.007888083852564438	-0.0002569669680606242	0.00232585846764017	-0.002690368867147637	-0.3877799101914067	0.03916970571706162	-0.004739370603479149	-0.07963806061458729	0.04252134576012044	0.08759582245564657	0.4092480008027749	-31.20406066505364	-33.31068824767224	5.691793551940553	5.183107099209597	-730.6596349497678	-89.73601509843533	-19.66186380834877	0.845775858198208	0.1447792597377245	0.3189356508943441	-1.807604447318303	0.4149243610937461	-0.9429505290826877	0.5471573796037128	-1.064768522336269	-1.064768522336249	0.8930063558571345	-0.2304814857872329	0.01757279757860012	0.441889508990113	-3.20418537494296e-08	1.068591497558283e-09	4.769450193116976e-08	2.818294506290896e-09	4.461715863596194e-08	2.944788093161561e-08	-2.165439781860919e-08
0.55	-0.1950564331673269	-0.07349134035986886	0.8329642143847703	0.9129726773406157	-0.2987982555852298	-0.1853561498224985	-0.9597416121169742	0.6489993352810215	0.6489993352810635	-0.0755850138352432	-0.1735136743283153	-0.01733257076073165	-0.009961989488767458	-0.4463096866199477	0.02348698452574385	-0.05787624359769495	0.5061117681424966	-0.0001172298245412678	0.01158713000970522	-0.005133452438886536	0.05798497054897189	0.05798497054896361	0.01421889791239735	-0.002467956169211092	0.002244210771636487	0.0004865356987744589	-0.3882914887272938	0.03943515283126926	-0.004652761986110429	-0.07678397177867009	0.03869157269988915	0.08767767597453145	0.4078838079792205	-32.27725412695064	-33.17990547204983	5.695588979868015	6.078299142231679	-728.1446930175183	-89.15259391154329	-19.64315872117456	0.8383746824389464	0.1225544854392913	0.2860025386199844	-1.736293644179665	0.1903148539431776	-0.667053116534012	0.4852643990014321	-0.9508882783600557	-0.9508882783581739	0.3663971564041987	-0.2085571843591967	-0.03419609167140645	0.1914883871068843	-2.637926296955106e-08	4.420628122403494e-10	4.407875101868333e-08	5.484807869786049e-09	2.834723765376574e-08	1.942985170122444e-08	-1.681490213510475e-08
0.5600000000000001	-0.1994773391029722	-0.07325068131471972	0.8323992796430797	0.9179475382219473	-0.2987938352911068	-0.1852685101428207	-0.9597701391335201	0.6495333671173724	0.649533367117312	-0.07543395770952788	-0.173548100091385	-0.01731273080265805	-0.009951923544462808	-0.4378640173392046	0.02460937058976598	-0.05516182802189985	0.4889477638261487	0.0006179795904406994	0.00642683902971306	-0.0006963139418140153	0.04900258974231509	0.04900258974231919	0.01508084098655517	-0.004364927253573899	0.001636061536368645	0.001099338533244239	-0.3888030672631941	0.03970059994545134	-0.004566153368623007	-0.07392988294275953	0.03486179963964878	0.08775952949338563	0.4065196151556627	-33.35541412056691	-33.048594050468	5.69968945086696	6.9798362249122	-725.7105799980042	-88.57060998115131	-19.62794226011274	0.8547163071158779	0.1022413306081552	0.2576428065774835	-1.702812094699842	-0.04506863449491982	-0.3597749545599405	0.3979216768159842	-0.8473038526887423	-0.8473038526887514	-0.2007678412778194	-0.1676778624297526	-0.08772751027452078	-0.07093083730043588	-1.586750161044999e-08	1.739364071413865e-09	2.963006447813587e-08	8.2378092661375e-09	1.495598378358871e-08	4.589991879200665e-09	-8.371503407928203e-09
